<?xml version="1.0" standalone="no"?>
<!DOCTYPE svg PUBLIC "-//W3C//DTD SVG 20010904//EN"
 "http://www.w3.org/TR/2001/REC-SVG-20010904/DTD/svg10.dtd">
<svg version="1.0" xmlns="http://www.w3.org/2000/svg"
 width="156.000000pt" height="156.000000pt" viewBox="0 0 156.000000 156.000000"
 preserveAspectRatio="xMidYMid meet">
<metadata>
Created by potrace 1.11, written by Peter Selinger 2001-2013
</metadata>
<g transform="translate(0.000000,156.000000) scale(0.100000,-0.100000)"
fill="#000000" stroke="none">
<path d="M282 1389 c-15 -5 -17 -29 -18 -240 0 -129 1 -240 4 -246 3 -10 85
-13 363 -13 l359 0 0 250 0 250 -22 1 c-108 4 -673 3 -686 -2z m641 -73 c2 -6
3 -76 3 -156 l-1 -145 -298 -1 -297 0 0 151 c0 84 2 154 4 156 11 10 585 5
589 -5z"/>
<path d="M562 852 c-7 -2 -12 -13 -12 -23 0 -27 -26 -76 -47 -88 -13 -7 22
-10 121 -11 l139 0 -21 23 c-11 12 -27 40 -34 62 l-13 40 -61 1 c-33 0 -65 -1
-72 -4z"/>
<path d="M28 643 c-2 -10 -4 -70 -3 -133 l0 -115 25 0 c23 0 25 5 30 50 4 37
9 51 23 53 10 2 17 -3 17 -11 0 -9 3 -17 8 -19 4 -1 19 -19 34 -39 22 -29 34
-36 58 -35 16 0 30 2 30 4 0 2 -23 37 -52 78 l-52 74 47 48 c26 26 47 50 47
53 0 2 -13 6 -29 7 -22 2 -38 -8 -75 -48 -26 -27 -49 -50 -51 -50 -2 0 -5 21
-7 48 -2 39 -7 48 -24 50 -14 2 -23 -3 -26 -15z"/>
<path d="M1130 634 c0 -22 4 -25 27 -22 19 2 27 9 28 26 1 18 -3 22 -27 22
-23 0 -28 -4 -28 -26z"/>
<path d="M338 592 c-24 -3 -75 -49 -64 -59 12 -12 47 -10 54 4 11 18 57 14 57
-6 0 -8 -11 -16 -25 -17 -55 -8 -71 -16 -82 -39 -26 -58 21 -101 86 -77 16 7
32 8 35 4 4 -4 15 -7 26 -8 19 -1 20 4 17 79 -3 106 -23 128 -104 119z m52
-126 c0 -8 -10 -22 -22 -30 -20 -14 -24 -14 -37 -1 -12 11 -12 17 -1 29 16 20
60 21 60 2z"/>
<path d="M753 588 c-29 -8 -62 -43 -50 -54 12 -12 46 -11 51 2 3 8 17 14 31
14 34 0 33 -28 -2 -36 -82 -17 -108 -53 -77 -101 16 -26 71 -32 92 -11 9 9 15
9 20 2 4 -5 17 -11 28 -11 21 -2 21 2 20 83 -1 46 -7 89 -12 94 -18 18 -68 27
-101 18z m62 -120 c-10 -34 -34 -49 -57 -37 -15 8 -16 14 -8 30 6 11 14 18 18
16 4 -3 16 -1 27 4 11 4 21 8 23 8 2 1 0 -9 -3 -21z"/>
<path d="M1005 592 c-11 -2 -26 -9 -32 -14 -9 -7 -13 -7 -13 1 0 6 -11 11 -25
11 -25 0 -25 0 -25 -98 0 -90 2 -98 20 -99 27 -2 31 7 31 74 1 63 11 83 41 83
24 0 31 -19 32 -94 1 -58 2 -61 26 -61 24 0 25 2 26 75 0 41 -2 81 -4 88 -6
18 -53 39 -77 34z"/>
<path d="M487 583 c-8 -14 -2 -263 6 -264 4 -1 16 1 27 4 16 4 19 12 15 46 -4
38 -3 40 15 31 32 -17 70 -11 95 15 20 19 25 34 25 75 0 41 -5 56 -25 75 -25
26 -63 32 -96 15 -13 -7 -19 -7 -19 0 0 11 -37 14 -43 3z m119 -58 c21 -32 11
-82 -19 -91 -29 -9 -61 30 -52 65 14 55 44 66 71 26z"/>
<path d="M1132 493 c3 -97 3 -98 28 -98 24 0 25 1 26 85 0 103 -2 110 -32 110
-25 0 -25 0 -22 -97z"/>
<path d="M10 212 c0 -29 3 -52 8 -52 10 0 9 86 0 96 -5 4 -8 -16 -8 -44z"/>
<path d="M45 250 c4 -6 11 -8 16 -5 5 4 9 -14 9 -40 0 -25 4 -44 8 -41 5 3 8
21 7 41 -2 29 2 39 19 45 17 7 12 9 -22 9 -27 1 -41 -3 -37 -9z"/>
<path d="M172 248 c-19 -19 -14 -28 23 -44 20 -8 33 -19 30 -24 -8 -14 -39
-12 -53 2 -9 9 -12 9 -12 0 0 -18 33 -30 58 -21 33 13 27 38 -15 55 -32 14
-35 17 -19 26 12 7 21 7 29 -1 17 -17 31 -13 17 4 -15 18 -42 19 -58 3z"/>
<path d="M920 247 c0 -9 -10 -17 -22 -19 -18 -2 -23 -10 -23 -33 0 -25 4 -30
28 -33 17 -2 27 2 28 10 3 40 1 80 -5 85 -3 4 -6 -1 -6 -10z m-3 -43 c8 -21
-13 -42 -28 -27 -13 13 -5 43 11 43 6 0 13 -7 17 -16z"/>
<path d="M1001 251 c-19 -12 -7 -39 24 -51 14 -5 25 -14 25 -20 0 -13 -37 -13
-45 0 -3 6 -12 10 -18 10 -7 -1 -2 -9 10 -19 29 -24 63 -17 63 13 0 15 -10 25
-32 34 -29 11 -31 14 -15 23 13 8 22 7 34 -3 14 -11 15 -11 11 2 -5 18 -37 24
-57 11z"/>
<path d="M1159 258 c-6 -12 -3 -98 3 -98 4 0 8 23 8 50 0 41 -5 61 -11 48z"/>
<path d="M388 239 c-6 -17 3 -79 12 -79 4 0 7 20 8 45 0 41 -11 61 -20 34z"/>
<path d="M1259 238 c-1 -7 0 -17 1 -23 2 -5 2 -18 2 -27 -1 -34 16 -27 20 7 2
19 0 35 -5 35 -4 0 -5 5 -2 10 3 6 1 10 -4 10 -6 0 -12 -6 -12 -12z"/>
<path d="M330 225 c-14 -16 -5 -35 16 -35 8 0 14 -5 14 -11 0 -6 -9 -9 -20 -6
-11 3 -20 2 -20 -3 0 -18 41 -18 51 1 8 16 6 21 -16 29 -30 11 -34 25 -5 17
23 -6 28 8 6 16 -8 3 -20 0 -26 -8z"/>
<path d="M734 224 c-18 -15 -18 -15 4 -9 13 4 22 2 22 -4 0 -6 -6 -11 -14 -11
-8 0 -18 -5 -21 -10 -11 -17 13 -38 38 -33 19 4 23 10 19 33 -6 41 -24 53 -48
34z m28 -46 c-9 -9 -15 -9 -24 0 -9 9 -7 12 12 12 19 0 21 -3 12 -12z"/>
<path d="M1085 220 c-20 -22 -13 -56 14 -63 39 -10 58 53 22 72 -14 8 -22 6
-36 -9z m40 -25 c0 -11 -8 -21 -17 -23 -14 -3 -18 3 -18 23 0 20 4 26 18 23 9
-2 17 -12 17 -23z"/>
<path d="M1490 230 c-16 -10 -6 -40 15 -40 8 0 15 -5 15 -11 0 -6 -9 -9 -20
-6 -23 6 -27 -8 -5 -17 17 -6 48 21 40 35 -4 5 -12 9 -20 9 -8 0 -17 5 -21 12
-5 8 0 9 14 6 12 -4 22 -3 22 2 0 12 -25 19 -40 10z"/>
<path d="M250 221 c0 -5 5 -22 10 -37 7 -19 7 -30 -1 -40 -8 -10 -8 -14 0 -14
11 0 33 38 45 78 5 13 3 22 -3 22 -6 0 -11 -9 -11 -19 0 -11 -4 -23 -10 -26
-5 -3 -10 3 -10 14 0 11 -4 23 -10 26 -5 3 -10 2 -10 -4z"/>
<path d="M431 217 c-20 -25 7 -71 36 -60 21 8 15 22 -7 16 -11 -3 -20 0 -20 6
0 6 12 11 26 11 19 0 25 5 22 18 -4 22 -41 28 -57 9z m39 -7 c0 -5 -4 -10 -9
-10 -6 0 -13 5 -16 10 -3 6 1 10 9 10 9 0 16 -4 16 -10z"/>
<path d="M500 201 c0 -16 4 -32 10 -36 5 -3 8 7 7 22 -1 19 3 28 13 28 9 0 15
-9 15 -22 0 -11 3 -25 8 -29 4 -4 7 7 7 25 0 22 4 31 13 29 6 -3 12 -14 12
-26 0 -11 4 -24 8 -29 5 -4 7 8 5 27 -3 34 -4 35 -50 38 -47 3 -48 3 -48 -27z"/>
<path d="M616 221 c-4 -5 6 -19 21 -31 l28 -21 -28 6 c-19 4 -26 2 -22 -5 9
-15 55 -12 55 4 0 7 -10 21 -22 30 l-23 17 24 -7 c16 -4 21 -3 17 5 -9 13 -43
15 -50 2z"/>
<path d="M801 193 c1 -36 2 -37 8 -8 7 35 36 41 36 8 0 -12 4 -25 8 -30 5 -4
7 8 5 27 -3 30 -7 35 -30 38 -26 3 -28 1 -27 -35z"/>
<path d="M1190 228 c-2 -8 -3 -40 -1 -58 1 -10 43 -14 53 -5 2 3 2 20 -1 37
l-5 33 -5 -29 c-8 -42 -29 -44 -34 -4 -2 18 -5 30 -7 26z"/>
<path d="M1298 195 c-2 -19 0 -35 4 -35 4 0 8 16 8 35 0 19 -2 35 -4 35 -2 0
-6 -16 -8 -35z"/>
<path d="M1328 206 c-9 -47 46 -67 58 -22 8 32 -2 46 -30 46 -17 0 -25 -7 -28
-24z m49 -2 c1 -5 -2 -16 -7 -24 -12 -20 -35 2 -26 25 6 17 27 16 33 -1z"/>
<path d="M1404 195 c1 -43 16 -47 16 -5 0 20 5 30 15 30 10 0 15 -10 15 -30 0
-16 4 -30 9 -30 5 0 8 8 6 18 -2 9 -4 25 -4 35 -1 12 -9 17 -30 17 -26 0 -28
-3 -27 -35z"/>
</g>
</svg>
